<svg width="10" height="10" viewBox="0 0 10 10" fill="none" xmlns="http://www.w3.org/2000/svg">
<path fill-rule="evenodd" clip-rule="evenodd" d="M9.0559 2.35829C9.44643 1.96777 9.44643 1.3346 9.0559 0.944077C8.66538 0.553553 8.03221 0.553553 7.64169 0.944077L4.99996 3.58581L2.35823 0.944077C1.96771 0.553553 1.33454 0.553553 0.944016 0.944077C0.553492 1.3346 0.553492 1.96777 0.944016 2.35829L3.58575 5.00002L0.944016 7.64175C0.553492 8.03228 0.553492 8.66544 0.944016 9.05597C1.33454 9.44649 1.96771 9.44649 2.35823 9.05597L4.99996 6.41423L7.64169 9.05597C8.03221 9.44649 8.66538 9.44649 9.0559 9.05597C9.44643 8.66544 9.44643 8.03228 9.0559 7.64175L6.41417 5.00002L9.0559 2.35829Z" fill="black" fill-opacity="0.65"/>
</svg>
